<svg width="41" height="22" viewBox="0 0 41 22" fill="none" xmlns="http://www.w3.org/2000/svg">
                        <path d="M1.25536 9.75546H39.0408C39.7335 9.75546 40.2931 10.3151 40.2931 11.0078C40.2931 11.7005 39.7335 12.2601 39.0408 12.2601H4.28054L11.8807 19.8603C12.3699 20.3495 12.3699 21.1439 11.8807 21.6331C11.3915 22.1223 10.597 22.1223 10.1078 21.6331L0.366985 11.8923C0.00693893 11.5322 -0.098732 10.9961 0.0969467 10.5264C0.292625 10.0607 0.750515 9.75546 1.25536 9.75546Z" fill="#fff"></path>
                        <path d="M11.0079 0.0028038C11.3288 0.0028038 11.6497 0.124125 11.8924 0.370679C12.3816 0.859874 12.3816 1.65432 11.8924 2.14352L2.13979 11.8961C1.6506 12.3853 0.856151 12.3853 0.366956 11.8961C-0.122239 11.4069 -0.122239 10.6125 0.366956 10.1233L10.1195 0.370679C10.3661 0.124125 10.687 0.0028038 11.0079 0.0028038Z" fill="#fff"></path>
                    </svg>