<svg width="41" height="22" viewBox="0 0 41 22" fill="none" xmlns="http://www.w3.org/2000/svg">
                        <path d="M39.0374 12.2499L1.25198 12.245C0.55928 12.2449 -0.000286104 11.6852 -0.000196778 10.9925C-0.000107452 10.2998 0.559603 9.74024 1.2523 9.74033L36.0125 9.74481L28.4134 2.14371C27.9242 1.65445 27.9243 0.859997 28.4136 0.370865C28.9029 -0.118267 29.6973 -0.118164 30.1864 0.371094L39.926 10.1132C40.286 10.4733 40.3916 11.0095 40.1959 11.4791C40.0001 11.9447 39.5422 12.2499 39.0374 12.2499Z" fill="#fff"></path>
                        <path d="M29.2835 22.0013C28.9626 22.0012 28.6417 21.8799 28.3991 21.6333C27.9099 21.144 27.91 20.3496 28.3993 19.8604L38.1531 10.1091C38.6424 9.61998 39.4368 9.62008 39.926 10.1093C40.4151 10.5986 40.415 11.393 39.9257 11.8822L30.1719 21.6335C29.9253 21.88 29.6044 22.0013 29.2835 22.0013Z" fill="#fff"></path>
                    </svg>