<svg width="141" height="75" viewBox="0 0 141 75" fill="none" xmlns="http://www.w3.org/2000/svg">
<path d="M137.297 28.0753C130.403 14.8795 114.071 9.73884 100.865 16.6293C90.114 22.2418 85.9228 35.5579 91.5353 46.3093C93.7259 50.5058 97.6958 53.6547 102.451 54.9552C102.499 54.9684 102.548 54.9816 102.596 54.9948C109.827 56.9102 116.538 55.0757 120.53 50.0714C124.187 45.494 124.806 39.1735 122.092 33.9733C120.609 31.1314 117.939 28.9913 114.759 28.1111C114.739 28.1058 114.71 28.0979 114.691 28.0926C109.743 26.7393 105.143 27.9797 102.372 31.4C99.8187 34.5582 99.3806 38.9274 101.257 42.53C102.318 44.562 104.229 46.028 106.549 46.6831C109.971 47.588 113.174 46.6808 115.112 44.2562C116.906 42.0201 117.202 38.9287 115.877 36.379C115.367 35.3999 114.156 35.0166 113.176 35.5263C112.197 36.0361 111.814 37.2479 112.324 38.2271C112.915 39.3633 112.785 40.7481 111.982 41.7517C111.051 42.9176 109.444 43.2971 107.568 42.8046C106.348 42.4503 105.343 41.6883 104.803 40.6696C103.66 38.4805 103.929 35.8276 105.481 33.9088C107.263 31.7113 110.272 31.0206 113.687 31.9545C115.835 32.5524 117.554 33.9244 118.541 35.8117C120.52 39.6081 120.069 44.2124 117.402 47.5573C114.379 51.3335 109.358 52.635 103.618 51.1066C103.579 51.0961 103.541 51.0855 103.502 51.075C99.8173 50.0672 96.7555 47.654 95.0747 44.4367C90.4843 35.6339 93.909 24.7415 102.702 20.1485C113.949 14.2775 127.868 18.6543 133.729 29.8988C138.899 39.8036 137.654 52.3183 130.623 61.0427C123.827 69.4787 113.382 72.5313 101.971 69.4105C88.486 65.7226 81.2706 58.1406 73.638 50.1127C64.8722 40.8833 55.7979 31.3415 36.8151 26.1499L-56.5367 0.61904C-57.5977 0.328857 -58.7032 0.959556 -58.9934 2.02059C-59.2836 3.08162 -58.6529 4.18716 -57.5919 4.47735L35.7984 30.0187C53.701 34.9149 62.3791 44.0477 70.7777 52.876C78.8038 61.3225 86.3891 69.296 100.954 73.2794C113.773 76.7853 126.046 73.1543 133.77 63.5621C141.771 53.6412 143.193 39.3813 137.297 28.0753Z" fill="#1F1F1F"/>
</svg>
